<mxfile host="app.diagrams.net" modified="2020-11-03T18:12:21.656Z" agent="5.0 (Windows NT 10.0; Win64; x64) AppleWebKit/537.36 (KHTML, like Gecko) Chrome/86.0.4240.111 Safari/537.36" etag="Sz3LlkCfyflKCF1ZdOFM" version="13.8.8" type="github">
  <diagram id="giAabpwPuGFfijqy-w_J" name="Page-1">
    <mxGraphModel dx="870" dy="609" grid="1" gridSize="10" guides="1" tooltips="1" connect="1" arrows="1" fold="1" page="1" pageScale="1" pageWidth="2336" pageHeight="1654" math="0" shadow="0">
      <root>
        <mxCell id="0" />
        <mxCell id="1" parent="0" />
        <mxCell id="yPrp7qd_ZaBmRegbb4Uq-1" value="&amp;lt;&amp;lt;System&amp;gt;&amp;gt;&lt;br&gt;CareerPathways" style="shape=umlFrame;whiteSpace=wrap;html=1;width=220;height=60;" vertex="1" parent="1">
          <mxGeometry x="200" y="40" width="920" height="890" as="geometry" />
        </mxCell>
        <mxCell id="yPrp7qd_ZaBmRegbb4Uq-2" value="Employee" style="shape=umlActor;verticalLabelPosition=bottom;verticalAlign=top;html=1;" vertex="1" parent="1">
          <mxGeometry x="80" y="320" width="30" height="60" as="geometry" />
        </mxCell>
        <mxCell id="yPrp7qd_ZaBmRegbb4Uq-10" style="edgeStyle=orthogonalEdgeStyle;rounded=0;orthogonalLoop=1;jettySize=auto;html=1;entryX=0;entryY=0.5;entryDx=0;entryDy=0;dashed=1;startArrow=none;startFill=0;endArrow=open;endFill=0;endSize=11;" edge="1" parent="1" source="yPrp7qd_ZaBmRegbb4Uq-3" target="yPrp7qd_ZaBmRegbb4Uq-9">
          <mxGeometry relative="1" as="geometry" />
        </mxCell>
        <mxCell id="yPrp7qd_ZaBmRegbb4Uq-11" value="&amp;lt;&amp;lt;includes&amp;gt;&amp;gt;" style="edgeLabel;html=1;align=center;verticalAlign=middle;resizable=0;points=[];" vertex="1" connectable="0" parent="yPrp7qd_ZaBmRegbb4Uq-10">
          <mxGeometry x="0.38" y="8" relative="1" as="geometry">
            <mxPoint x="1" as="offset" />
          </mxGeometry>
        </mxCell>
        <mxCell id="yPrp7qd_ZaBmRegbb4Uq-3" value="Login" style="ellipse;whiteSpace=wrap;html=1;" vertex="1" parent="1">
          <mxGeometry x="270" y="140" width="140" height="70" as="geometry" />
        </mxCell>
        <mxCell id="yPrp7qd_ZaBmRegbb4Uq-6" style="edgeStyle=orthogonalEdgeStyle;rounded=0;orthogonalLoop=1;jettySize=auto;html=1;entryX=0;entryY=0.5;entryDx=0;entryDy=0;dashed=1;endArrow=none;endFill=0;startArrow=open;startFill=0;endSize=11;startSize=11;" edge="1" parent="1" source="yPrp7qd_ZaBmRegbb4Uq-4" target="yPrp7qd_ZaBmRegbb4Uq-5">
          <mxGeometry relative="1" as="geometry" />
        </mxCell>
        <mxCell id="yPrp7qd_ZaBmRegbb4Uq-7" value="&amp;lt;&amp;lt;extends&amp;gt;&amp;gt;" style="edgeLabel;html=1;align=center;verticalAlign=middle;resizable=0;points=[];" vertex="1" connectable="0" parent="yPrp7qd_ZaBmRegbb4Uq-6">
          <mxGeometry x="-0.3316" y="6" relative="1" as="geometry">
            <mxPoint x="-14" as="offset" />
          </mxGeometry>
        </mxCell>
        <mxCell id="yPrp7qd_ZaBmRegbb4Uq-15" style="edgeStyle=orthogonalEdgeStyle;rounded=0;orthogonalLoop=1;jettySize=auto;html=1;entryX=0;entryY=0.5;entryDx=0;entryDy=0;dashed=1;startArrow=none;startFill=0;startSize=11;endArrow=open;endFill=0;endSize=11;" edge="1" parent="1" source="yPrp7qd_ZaBmRegbb4Uq-4" target="yPrp7qd_ZaBmRegbb4Uq-14">
          <mxGeometry relative="1" as="geometry">
            <Array as="points">
              <mxPoint x="330" y="395" />
            </Array>
          </mxGeometry>
        </mxCell>
        <mxCell id="yPrp7qd_ZaBmRegbb4Uq-16" value="&amp;lt;&amp;lt;includes&amp;gt;&amp;gt;" style="edgeLabel;html=1;align=center;verticalAlign=middle;resizable=0;points=[];" vertex="1" connectable="0" parent="yPrp7qd_ZaBmRegbb4Uq-15">
          <mxGeometry x="-0.3487" y="32" relative="1" as="geometry">
            <mxPoint as="offset" />
          </mxGeometry>
        </mxCell>
        <mxCell id="yPrp7qd_ZaBmRegbb4Uq-21" style="edgeStyle=orthogonalEdgeStyle;rounded=0;orthogonalLoop=1;jettySize=auto;html=1;dashed=1;startArrow=none;startFill=0;startSize=11;endArrow=open;endFill=0;endSize=11;" edge="1" parent="1" source="yPrp7qd_ZaBmRegbb4Uq-4" target="yPrp7qd_ZaBmRegbb4Uq-20">
          <mxGeometry relative="1" as="geometry">
            <Array as="points">
              <mxPoint x="570" y="325" />
              <mxPoint x="570" y="325" />
            </Array>
          </mxGeometry>
        </mxCell>
        <mxCell id="yPrp7qd_ZaBmRegbb4Uq-22" value="&amp;lt;&amp;lt;includes&amp;gt;&amp;gt;" style="edgeLabel;html=1;align=center;verticalAlign=middle;resizable=0;points=[];" vertex="1" connectable="0" parent="yPrp7qd_ZaBmRegbb4Uq-21">
          <mxGeometry x="0.2774" y="10" relative="1" as="geometry">
            <mxPoint y="1" as="offset" />
          </mxGeometry>
        </mxCell>
        <mxCell id="yPrp7qd_ZaBmRegbb4Uq-4" value="Display Home Page" style="ellipse;whiteSpace=wrap;html=1;" vertex="1" parent="1">
          <mxGeometry x="270" y="260" width="140" height="70" as="geometry" />
        </mxCell>
        <mxCell id="yPrp7qd_ZaBmRegbb4Uq-18" style="edgeStyle=orthogonalEdgeStyle;rounded=0;orthogonalLoop=1;jettySize=auto;html=1;dashed=1;startArrow=none;startFill=0;startSize=11;endArrow=open;endFill=0;endSize=11;" edge="1" parent="1" source="yPrp7qd_ZaBmRegbb4Uq-5" target="yPrp7qd_ZaBmRegbb4Uq-17">
          <mxGeometry relative="1" as="geometry" />
        </mxCell>
        <mxCell id="yPrp7qd_ZaBmRegbb4Uq-19" value="&amp;lt;&amp;lt;includes&amp;gt;&amp;gt;" style="edgeLabel;html=1;align=center;verticalAlign=middle;resizable=0;points=[];" vertex="1" connectable="0" parent="yPrp7qd_ZaBmRegbb4Uq-18">
          <mxGeometry x="-0.7556" y="3" relative="1" as="geometry">
            <mxPoint x="29" y="-12" as="offset" />
          </mxGeometry>
        </mxCell>
        <mxCell id="yPrp7qd_ZaBmRegbb4Uq-5" value="Display actions list" style="ellipse;whiteSpace=wrap;html=1;" vertex="1" parent="1">
          <mxGeometry x="520" y="190" width="140" height="70" as="geometry" />
        </mxCell>
        <mxCell id="yPrp7qd_ZaBmRegbb4Uq-9" value="Display login error" style="ellipse;whiteSpace=wrap;html=1;" vertex="1" parent="1">
          <mxGeometry x="770" y="80" width="140" height="70" as="geometry" />
        </mxCell>
        <mxCell id="yPrp7qd_ZaBmRegbb4Uq-12" value="Add Action in Action List" style="ellipse;whiteSpace=wrap;html=1;" vertex="1" parent="1">
          <mxGeometry x="280" y="470" width="140" height="70" as="geometry" />
        </mxCell>
        <mxCell id="yPrp7qd_ZaBmRegbb4Uq-13" value="Remove Action from Action List" style="ellipse;whiteSpace=wrap;html=1;" vertex="1" parent="1">
          <mxGeometry x="280" y="610" width="140" height="70" as="geometry" />
        </mxCell>
        <mxCell id="yPrp7qd_ZaBmRegbb4Uq-14" value="Display percentage of learning development" style="ellipse;whiteSpace=wrap;html=1;" vertex="1" parent="1">
          <mxGeometry x="450" y="360" width="140" height="70" as="geometry" />
        </mxCell>
        <mxCell id="yPrp7qd_ZaBmRegbb4Uq-17" value="Get all Actions from Action Table" style="ellipse;whiteSpace=wrap;html=1;" vertex="1" parent="1">
          <mxGeometry x="900" y="190" width="140" height="70" as="geometry" />
        </mxCell>
        <mxCell id="yPrp7qd_ZaBmRegbb4Uq-20" value="Get User Details" style="ellipse;whiteSpace=wrap;html=1;" vertex="1" parent="1">
          <mxGeometry x="830" y="290" width="140" height="70" as="geometry" />
        </mxCell>
      </root>
    </mxGraphModel>
  </diagram>
</mxfile>
